# xmcd
#
# Track frame offsets:
#	187
#	9912
#	24555
#	35607
#	50642
#	63642
#	74765
#	91935
#
# Disc length: 1403 seconds
#
# Revision: 1
# Processed by: cddbd v1.4PL0 Copyright (c) Steve Scherf et al.
# Submitted via: dBpowerAMP V4.0
#
DISCID=6b057908
DTITLE=Willie Nelson - The Best Of Willie Nelson
DYEAR=1900
DGENRE=country
TTITLE0=Mountain Dew
TTITLE1=Sweet Memories
TTITLE2=Good Times
TTITLE3=Little Things
TTITLE4=Bloody Mary Morning
TTITLE5=Night Life
TTITLE6=Me And Paul
TTITLE7=Yesterday's Wine
EXTD=
EXTT0=
EXTT1=
EXTT2=
EXTT3=
EXTT4=
EXTT5=
EXTT6=
EXTT7=
PLAYORDER=
